<?xml version="1.0" encoding="utf-8"?>
<!-- Generator: Adobe Illustrator 25.4.1, SVG Export Plug-In . SVG Version: 6.00 Build 0)  -->
<svg version="1.1" id="图层_1" xmlns="http://www.w3.org/2000/svg" xmlns:xlink="http://www.w3.org/1999/xlink" x="0px" y="0px"
	 viewBox="0 0 134 134" style="enable-background:new 0 0 134 134;" xml:space="preserve">
<style type="text/css">
	.st0{fill:url(#SVGID_1_);}
	.st1{fill:url(#SVGID_00000142880345386209377760000015452188175643877786_);}
	.st2{fill:url(#SVGID_00000118385720911050040960000015609911976935339428_);}
	.st3{fill:url(#SVGID_00000152963045460003559620000001038834891841125301_);}
	.st4{fill:url(#SVGID_00000057852286403305607670000001105480375403009185_);}
	.st5{fill:url(#SVGID_00000140720705965055054110000007287119015244549817_);}
	.st6{fill:url(#SVGID_00000086680445438248925200000009032362202504312236_);}
	.st7{fill:url(#SVGID_00000049907931968112412260000000139870869351585172_);}
	.st8{fill:#2C50A1;}
	.st9{fill:url(#SVGID_00000047035650895479227170000008464068051605714869_);}
	.st10{fill:url(#SVGID_00000006681448233818979280000003556685560908098480_);}
	.st11{fill:url(#SVGID_00000152256990058029894410000005400175941704107426_);}
	.st12{fill:url(#SVGID_00000085211650750120660980000018047735623931341195_);}
	.st13{fill:url(#SVGID_00000165223700544574823700000017546560953576617360_);}
	.st14{fill:#CB561E;}
</style>
<g>
	<g>
		<g>
			<linearGradient id="SVGID_1_" gradientUnits="userSpaceOnUse" x1="5.0628" y1="109.4757" x2="32.3046" y2="109.4757">
				<stop  offset="0" style="stop-color:#FFFFFF"/>
				<stop  offset="1" style="stop-color:#3362AD"/>
			</linearGradient>
			<path class="st0" d="M32.3,118.84H15.49v-27.6H5.06v27.6v8.88c7.3-1.17,16.61-2.12,27.24-2.76V118.84z"/>
			
				<linearGradient id="SVGID_00000006672771420215867820000015087354871215517579_" gradientUnits="userSpaceOnUse" x1="36.5611" y1="107.9775" x2="46.9896" y2="107.9775">
				<stop  offset="0" style="stop-color:#FFFFFF"/>
				<stop  offset="1" style="stop-color:#3362AD"/>
			</linearGradient>
			<path style="fill:url(#SVGID_00000006672771420215867820000015087354871215517579_);" d="M46.99,91.24H36.56v33.48
				c3.37-0.17,6.85-0.31,10.43-0.42V91.24z"/>
			
				<linearGradient id="SVGID_00000126301438293596721820000000163615666313514426_" gradientUnits="userSpaceOnUse" x1="58.4259" y1="107.9639" x2="90.7147" y2="107.9639">
				<stop  offset="0" style="stop-color:#FFFFFF"/>
				<stop  offset="1" style="stop-color:#3362AD"/>
			</linearGradient>
			<path style="fill:url(#SVGID_00000126301438293596721820000000163615666313514426_);" d="M68.85,124.07v-11.77h11.43v11.98
				c3.58,0.1,7.06,0.24,10.43,0.41V91.24H80.29v13.8H68.85v-13.8H58.43v32.84c1.81-0.02,3.64-0.03,5.48-0.03
				C65.57,124.05,67.22,124.06,68.85,124.07z"/>
			
				<linearGradient id="SVGID_00000053542765316550338910000015598334279012568981_" gradientUnits="userSpaceOnUse" x1="97.4685" y1="110.138" x2="129.7257" y2="110.138">
				<stop  offset="0" style="stop-color:#FFFFFF"/>
				<stop  offset="1" style="stop-color:#3362AD"/>
			</linearGradient>
			<path style="fill:url(#SVGID_00000053542765316550338910000015598334279012568981_);" d="M129.73,91.24h-10.52
				c0.06,0.27,0.09,0.54,0.09,0.82v24.05c0,3.15-2.55,5.7-5.7,5.7c-3.15,0-5.7-2.55-5.7-5.7V91.24H97.47v22.49
				c0,5.62,1.15,9.24,3.09,11.56c12.15,0.88,22.26,2.18,29.17,3.75V91.24z"/>
		</g>
		<g>
			
				<linearGradient id="SVGID_00000060724905093058132680000000377314715967473310_" gradientUnits="userSpaceOnUse" x1="5.0628" y1="110.138" x2="129.7257" y2="110.138">
				<stop  offset="0.2834" style="stop-color:#3362AD"/>
				<stop  offset="1" style="stop-color:#1A2E70"/>
			</linearGradient>
			<path style="fill:url(#SVGID_00000060724905093058132680000000377314715967473310_);" d="M32.3,118.84H15.49v-27.6H5.06v27.6
				v8.88c7.3-1.17,16.61-2.12,27.24-2.76V118.84z"/>
			
				<linearGradient id="SVGID_00000097459208832495613940000013050248087980679057_" gradientUnits="userSpaceOnUse" x1="5.0628" y1="110.138" x2="129.7257" y2="110.138">
				<stop  offset="0.2834" style="stop-color:#3362AD"/>
				<stop  offset="1" style="stop-color:#1A2E70"/>
			</linearGradient>
			<path style="fill:url(#SVGID_00000097459208832495613940000013050248087980679057_);" d="M46.99,91.24H36.56v33.48
				c3.37-0.17,6.85-0.31,10.43-0.42V91.24z"/>
			
				<linearGradient id="SVGID_00000047043315708412425750000000825911638647456387_" gradientUnits="userSpaceOnUse" x1="5.0628" y1="110.138" x2="129.7257" y2="110.138">
				<stop  offset="0.2834" style="stop-color:#3362AD"/>
				<stop  offset="1" style="stop-color:#1A2E70"/>
			</linearGradient>
			<path style="fill:url(#SVGID_00000047043315708412425750000000825911638647456387_);" d="M68.85,124.07v-11.77h11.43v11.98
				c3.58,0.1,7.06,0.24,10.43,0.41V91.24H80.29v13.8H68.85v-13.8H58.43v32.84c1.81-0.02,3.64-0.03,5.48-0.03
				C65.57,124.05,67.22,124.06,68.85,124.07z"/>
			
				<linearGradient id="SVGID_00000014625606513202949520000016778133936767212678_" gradientUnits="userSpaceOnUse" x1="5.0628" y1="110.138" x2="129.7257" y2="110.138">
				<stop  offset="0.2834" style="stop-color:#3362AD"/>
				<stop  offset="1" style="stop-color:#1A2E70"/>
			</linearGradient>
			<path style="fill:url(#SVGID_00000014625606513202949520000016778133936767212678_);" d="M129.73,91.24h-10.52
				c0.06,0.27,0.09,0.54,0.09,0.82v24.05c0,3.15-2.55,5.7-5.7,5.7c-3.15,0-5.7-2.55-5.7-5.7V91.24H97.47v22.49
				c0,5.62,1.15,9.24,3.09,11.56c12.15,0.88,22.26,2.18,29.17,3.75V91.24z"/>
		</g>
	</g>
	<g>
		<g>
			<path class="st8" d="M83.27,62.35c-0.35-0.43-0.55-0.34-0.48,0.22c0,0,1.52,8.15-1.32,13.69c-2.81,5.5-4.9,10.08-4.9,10.08h0.01
				h9.58c1.15-3.85,1.66-7.87,1.51-11.88C87.47,70.06,85.94,65.84,83.27,62.35z"/>
			<path class="st8" d="M97.86,78.35c-1.17-1.94-2.58-3.72-4.21-5.3c-0.26-0.26-0.44-0.17-0.4,0.19c0.33,2.49,0.09,5.02-0.71,7.4
				c-0.78,1.83-1.66,3.62-2.63,5.35h9.75C99.92,83.32,99.29,80.63,97.86,78.35z"/>
			<path class="st8" d="M76.55,60.18c-0.82-2.67-2.16-5.14-3.95-7.28c-0.48-0.58-0.81-0.46-0.77,0.29
				c0.41,5.96-0.18,11.94-1.77,17.69c-2.15,5.95-5.55,11.36-9.99,15.86H72.3C72.3,86.74,81.02,74.16,76.55,60.18z"/>
			<path class="st8" d="M70.34,47.81c0-0.35,0.15-0.68,0.41-0.91c0.26-0.23,0.61-0.34,0.96-0.29c0.35,0.05,4.23,0.41,6.06,0.87
				c0.02,0.01,0.04,0.01,0.05,0.02c3.13,1.06,6.53-0.59,7.64-3.7l1.27-3.57c0.12-0.36-0.06-0.51-0.4-0.36
				c-2.46,1.31-5.3,1.71-8.02,1.13c-1.83-0.55-5.42-1.37-6.8-2.99c-0.94-1.21-1.21-2.81-0.73-4.27c0.49-1.45,1.67-2.57,3.15-2.97
				c4.37-0.8,3.02,1.4,6,2.27c2.49,0.72,2.03-0.17,2.43,0.46c0.09,0.99,0.1,1.99,0.03,2.99c-0.02,0.55,0.31,0.72,0.72,0.34
				l3.81-3.33c1.58-1.01,2.81-0.05,4.39-1.06c1.16-1.13,2.08-2.5,2.69-4c0.41-0.84,0.06-1.86-0.79-2.27l-3.87-1.9
				c-0.34-0.14-0.31-0.29,0.07-0.29h5.64c0.37,0,0.46-0.22,0.19-0.48c0,0-5.85-5.98-10.17-6.89h0.01c-4.32-0.89-4.14-5.4-7.33-6.82
				C73.18,7.9,68.3,6.84,63.35,6.64c-4.96-0.21-8.31-0.46-12.62-0.92c-1.77-0.17-4.96-0.87-4.96-0.87
				c-0.44-0.08-0.89-0.09-1.33-0.05c-2.07,0.28-3.71,1.89-4.03,3.95c-0.39,3.18-0.33,6.4,0.16,9.57c0.08,1.29-0.26,2.58-0.96,3.66
				c-2.16,2.81-3.96,5.88-5.36,9.14c-2.02,4.97,10.75,13.23,19.02,18.73c7.53,5.18,6.99,16.99,6.99,16.99
				c-4.85-5.91-10.86-10.78-17.65-14.3C36.53,49.81,31.5,45.2,28.24,39.4c-0.26-0.51-0.54-0.46-0.61,0.12c0,0-1.38,8.34,1.48,13.48
				c6.45,11.57,12.9,10.29,17.93,16.71c3.13,4.4,4.85,9.64,4.94,15.04c0.09,5.4-8.88-12.9-21.45-18.75
				c-8.33-5.59-6.8-11.47-7.78-9.28c-0.98,2.19,2.43,17.55,5.95,20.27c7.33,5.66,8.57,9.28,8.57,9.28h15.97
				c0,0,10.87-12.87,13.45-21.02C70.73,52.56,70.34,47.81,70.34,47.81z M60.16,13.7C60.16,13.7,60.16,13.7,60.16,13.7L60.16,13.7
				C60.17,13.7,60.16,13.7,60.16,13.7c-0.05,0.12-2.71,6.73,0.32,9.71c2.83,2.38,4.24,6.05,3.73,9.72
				c-0.36-1.63-1.48-2.99-3.02-3.64c-2.62-1.23-4.59-3.52-5.43-6.29C54.68,18.25,60.02,13.82,60.16,13.7z M45.88,9.87
				c1.64,0,6.94,0.02,6.94,0.02c0.38,0,0.46,0.22,0.2,0.48c0,0-4.54,4.6-6.78,4.6C43.99,14.98,43.21,9.87,45.88,9.87z M57.93,43.76
				c-4.33-1.85-8.28-4.5-11.63-7.81c-4.1-4.12,1.59-13.23,1.59-13.23c0.1-0.17,0.14-0.14,0.11,0.05c0,0-0.69,1.74,2.08,7.98
				c2.47,5.57,7.96,6.27,10.8,8.97c3.05,2.96,4.8,7.01,4.87,11.26C63.92,47.84,61.2,45.33,57.93,43.76z M66.45,14.63
				c0.07-0.14,0.22-0.22,0.37-0.21c2.44-0.24,4.91-0.04,7.28,0.6c2.27,0.7,4.98,2.17,4.26,3.11c-0.72,0.94-0.87,3.45-5.39,1.88
				c-2.65-0.89-4.92-2.64-6.46-4.97C66.41,14.94,66.38,14.77,66.45,14.63z"/>
			<path class="st8" d="M18.99,67.83c0,0-3.11,8.04-0.15,14.43c0.65,1.42,3.57,4,5.01,4c4.22,0,6.68,0,6.68,0s-5.18-6.11-7.14-6.87
				C20.17,78.14,18.99,72.33,18.99,67.83z"/>
		</g>
		<g>
			
				<linearGradient id="SVGID_00000014633150358727898980000009625570852999607683_" gradientUnits="userSpaceOnUse" x1="17.5595" y1="45.7605" x2="99.7278" y2="45.7605">
				<stop  offset="0" style="stop-color:#2D5DA3"/>
				<stop  offset="1" style="stop-color:#19306D"/>
			</linearGradient>
			<path style="fill:url(#SVGID_00000014633150358727898980000009625570852999607683_);" d="M83.27,62.35
				c-0.35-0.43-0.55-0.34-0.48,0.22c0,0,1.52,8.15-1.32,13.69c-2.81,5.5-4.9,10.08-4.9,10.08h0.01h9.58
				c1.15-3.85,1.66-7.87,1.51-11.88C87.47,70.06,85.94,65.84,83.27,62.35z"/>
			
				<linearGradient id="SVGID_00000106846234431256151320000003354212819628759469_" gradientUnits="userSpaceOnUse" x1="17.5595" y1="45.7605" x2="99.7278" y2="45.7605">
				<stop  offset="0" style="stop-color:#2D5DA3"/>
				<stop  offset="1" style="stop-color:#19306D"/>
			</linearGradient>
			<path style="fill:url(#SVGID_00000106846234431256151320000003354212819628759469_);" d="M97.86,78.35
				c-1.17-1.94-2.58-3.72-4.21-5.3c-0.26-0.26-0.44-0.17-0.4,0.19c0.33,2.49,0.09,5.02-0.71,7.4c-0.78,1.83-1.66,3.62-2.63,5.35
				h9.75C99.92,83.32,99.29,80.63,97.86,78.35z"/>
			
				<linearGradient id="SVGID_00000145030070266219734220000017094032054316756895_" gradientUnits="userSpaceOnUse" x1="17.5595" y1="45.7605" x2="99.7278" y2="45.7605">
				<stop  offset="0" style="stop-color:#2D5DA3"/>
				<stop  offset="1" style="stop-color:#19306D"/>
			</linearGradient>
			<path style="fill:url(#SVGID_00000145030070266219734220000017094032054316756895_);" d="M76.55,60.18
				c-0.82-2.67-2.16-5.14-3.95-7.28c-0.48-0.58-0.81-0.46-0.77,0.29c0.41,5.96-0.18,11.94-1.77,17.69
				c-2.15,5.95-5.55,11.36-9.99,15.86H72.3C72.3,86.74,81.02,74.16,76.55,60.18z"/>
			
				<linearGradient id="SVGID_00000041986952121602191990000009642651446401620153_" gradientUnits="userSpaceOnUse" x1="17.5595" y1="45.7605" x2="99.7278" y2="45.7605">
				<stop  offset="0" style="stop-color:#2D5DA3"/>
				<stop  offset="1" style="stop-color:#19306D"/>
			</linearGradient>
			<path style="fill:url(#SVGID_00000041986952121602191990000009642651446401620153_);" d="M70.34,47.81
				c0-0.35,0.15-0.68,0.41-0.91c0.26-0.23,0.61-0.34,0.96-0.29c0.35,0.05,4.23,0.41,6.06,0.87c0.02,0.01,0.04,0.01,0.05,0.02
				c3.13,1.06,6.53-0.59,7.64-3.7l1.27-3.57c0.12-0.36-0.06-0.51-0.4-0.36c-2.46,1.31-5.3,1.71-8.02,1.13
				c-1.83-0.55-5.42-1.37-6.8-2.99c-0.94-1.21-1.21-2.81-0.73-4.27c0.49-1.45,1.67-2.57,3.15-2.97c4.37-0.8,3.02,1.4,6,2.27
				c2.49,0.72,2.03-0.17,2.43,0.46c0.09,0.99,0.1,1.99,0.03,2.99c-0.02,0.55,0.31,0.72,0.72,0.34l3.81-3.33
				c1.58-1.01,2.81-0.05,4.39-1.06c1.16-1.13,2.08-2.5,2.69-4c0.41-0.84,0.06-1.86-0.79-2.27l-3.87-1.9
				c-0.34-0.14-0.31-0.29,0.07-0.29h5.64c0.37,0,0.46-0.22,0.19-0.48c0,0-5.85-5.98-10.17-6.89h0.01c-4.32-0.89-4.14-5.4-7.33-6.82
				C73.18,7.9,68.3,6.84,63.35,6.64c-4.96-0.21-8.31-0.46-12.62-0.92c-1.77-0.17-4.96-0.87-4.96-0.87
				c-0.44-0.08-0.89-0.09-1.33-0.05c-2.07,0.28-3.71,1.89-4.03,3.95c-0.39,3.18-0.33,6.4,0.16,9.57c0.08,1.29-0.26,2.58-0.96,3.66
				c-2.16,2.81-3.96,5.88-5.36,9.14c-2.02,4.97,10.75,13.23,19.02,18.73c7.53,5.18,6.99,16.99,6.99,16.99
				c-4.85-5.91-10.86-10.78-17.65-14.3C36.53,49.81,31.5,45.2,28.24,39.4c-0.26-0.51-0.54-0.46-0.61,0.12c0,0-1.38,8.34,1.48,13.48
				c6.45,11.57,12.9,10.29,17.93,16.71c3.13,4.4,4.85,9.64,4.94,15.04c0.09,5.4-8.88-12.9-21.45-18.75
				c-8.33-5.59-6.8-11.47-7.78-9.28c-0.98,2.19,2.43,17.55,5.95,20.27c7.33,5.66,8.57,9.28,8.57,9.28h15.97
				c0,0,10.87-12.87,13.45-21.02C70.73,52.56,70.34,47.81,70.34,47.81z M60.16,13.7C60.16,13.7,60.16,13.7,60.16,13.7L60.16,13.7
				C60.17,13.7,60.16,13.7,60.16,13.7c-0.05,0.12-2.71,6.73,0.32,9.71c2.83,2.38,4.24,6.05,3.73,9.72
				c-0.36-1.63-1.48-2.99-3.02-3.64c-2.62-1.23-4.59-3.52-5.43-6.29C54.68,18.25,60.02,13.82,60.16,13.7z M45.88,9.87
				c1.64,0,6.94,0.02,6.94,0.02c0.38,0,0.46,0.22,0.2,0.48c0,0-4.54,4.6-6.78,4.6C43.99,14.98,43.21,9.87,45.88,9.87z M57.93,43.76
				c-4.33-1.85-8.28-4.5-11.63-7.81c-4.1-4.12,1.59-13.23,1.59-13.23c0.1-0.17,0.14-0.14,0.11,0.05c0,0-0.69,1.74,2.08,7.98
				c2.47,5.57,7.96,6.27,10.8,8.97c3.05,2.96,4.8,7.01,4.87,11.26C63.92,47.84,61.2,45.33,57.93,43.76z M66.45,14.63
				c0.07-0.14,0.22-0.22,0.37-0.21c2.44-0.24,4.91-0.04,7.28,0.6c2.27,0.7,4.98,2.17,4.26,3.11c-0.72,0.94-0.87,3.45-5.39,1.88
				c-2.65-0.89-4.92-2.64-6.46-4.97C66.41,14.94,66.38,14.77,66.45,14.63z"/>
			
				<linearGradient id="SVGID_00000109013829792075760170000005243298853610326694_" gradientUnits="userSpaceOnUse" x1="17.5595" y1="45.7605" x2="99.7278" y2="45.7605">
				<stop  offset="0" style="stop-color:#2D5DA3"/>
				<stop  offset="1" style="stop-color:#19306D"/>
			</linearGradient>
			<path style="fill:url(#SVGID_00000109013829792075760170000005243298853610326694_);" d="M18.99,67.83c0,0-3.11,8.04-0.15,14.43
				c0.65,1.42,3.57,4,5.01,4c4.22,0,6.68,0,6.68,0s-5.18-6.11-7.14-6.87C20.17,78.14,18.99,72.33,18.99,67.83z"/>
		</g>
	</g>
	<path class="st14" d="M104.23,85.99h7.56c0,0,9.54-12.12,9-31.46c-0.65-23.27-21.06-23.27-21.06-23.27s17.54-0.15,18,22.88
		C118.08,71.95,104.23,85.99,104.23,85.99z"/>
</g>
</svg>
